<?xml version="1.0" encoding="UTF-8" standalone="no"?><!DOCTYPE svg PUBLIC "-//W3C//DTD SVG 1.1//EN" "http://www.w3.org/Graphics/SVG/1.1/DTD/svg11.dtd"><!-- Generated by graphviz version 2.40.1 (20161225.0304)
 --><!-- Title: G Pages: 1 --><svg xmlns="http://www.w3.org/2000/svg" xmlns:xlink="http://www.w3.org/1999/xlink" width="467pt" height="261pt" viewBox="0.00 0.00 467.00 260.80">
<g id="graph0" class="graph" transform="scale(1 1) rotate(0) translate(4 256.8)">
<title>G</title>
<polygon fill="#ffffff" stroke="transparent" points="-4,4 -4,-256.8 463,-256.8 463,4 -4,4"/>
<!-- 1 -->
<g id="node1" class="node">
<title>1</title>
<ellipse fill="none" stroke="#ff0000" cx="18" cy="-191" rx="18" ry="18"/>
<text text-anchor="middle" x="18" y="-186.8" font-family="Times,serif" font-size="14.00" fill="#000000">1</text>
</g>
<!-- 2 -->
<g id="node3" class="node">
<title>2</title>
<ellipse fill="none" stroke="#000000" cx="104" cy="-137" rx="18" ry="18"/>
<text text-anchor="middle" x="104" y="-132.8" font-family="Times,serif" font-size="14.00" fill="#000000">2</text>
</g>
<!-- 1&#45;&gt;2 -->
<g id="edge1" class="edge">
<title>1-&gt;2</title>
<path fill="none" stroke="#ff0000" d="M30.9865,-178.3726C37.5476,-172.4001 45.8343,-165.4463 54,-160.2 61.2459,-155.5446 69.5769,-151.2951 77.3343,-147.7415"/>
<polygon fill="#ff0000" stroke="#ff0000" points="78.9684,-150.8471 86.729,-143.6343 76.1643,-144.4332 78.9684,-150.8471"/>
<text text-anchor="middle" x="61" y="-165.2" font-family="Times,serif" font-size="14.00" fill="#000000">1</text>
</g>
<!-- 4 -->
<g id="node4" class="node">
<title>4</title>
<ellipse fill="none" stroke="#000000" cx="183" cy="-118" rx="18" ry="18"/>
<text text-anchor="middle" x="183" y="-113.8" font-family="Times,serif" font-size="14.00" fill="#000000">4</text>
</g>
<!-- 1&#45;&gt;4 -->
<g id="edge2" class="edge">
<title>1-&gt;4</title>
<path fill="none" stroke="#000000" d="M36.2457,-188.7903C62.7626,-184.8334 112.538,-174.5281 147,-150 152.15,-146.3345 157.3976,-142.0435 162.2361,-137.816"/>
<polygon fill="#000000" stroke="#000000" points="164.8333,-140.1862 169.9031,-130.8831 160.1384,-134.9941 164.8333,-140.1862"/>
<text text-anchor="middle" x="104" y="-181.2" font-family="Times,serif" font-size="14.00" fill="#000000">8</text>
</g>
<!-- 7 -->
<g id="node5" class="node">
<title>7</title>
<ellipse fill="none" stroke="#000000" cx="441" cy="-160" rx="18" ry="18"/>
<text text-anchor="middle" x="441" y="-155.8" font-family="Times,serif" font-size="14.00" fill="#000000">7</text>
</g>
<!-- 1&#45;&gt;7 -->
<g id="edge3" class="edge">
<title>1-&gt;7</title>
<path fill="none" stroke="#000000" d="M31.4643,-203.2964C47.5,-216.6201 75.6903,-236 104,-236 104,-236 104,-236 355,-236 386.5223,-236 411.9277,-206.9756 426.7381,-184.7998"/>
<polygon fill="#000000" stroke="#000000" points="429.8442,-186.437 432.2446,-176.1176 423.9329,-182.6878 429.8442,-186.437"/>
<text text-anchor="middle" x="226" y="-240.2" font-family="Times,serif" font-size="14.00" fill="#000000">6</text>
</g>
<!-- 6 -->
<g id="node2" class="node">
<title>6</title>
<ellipse fill="none" stroke="#ff0000" cx="441" cy="-50" rx="18" ry="18"/>
<text text-anchor="middle" x="441" y="-45.8" font-family="Times,serif" font-size="14.00" fill="#000000">6</text>
</g>
<!-- 5 -->
<g id="node7" class="node">
<title>5</title>
<ellipse fill="none" stroke="#000000" cx="269" cy="-56" rx="18" ry="18"/>
<text text-anchor="middle" x="269" y="-51.8" font-family="Times,serif" font-size="14.00" fill="#000000">5</text>
</g>
<!-- 6&#45;&gt;5 -->
<g id="edge12" class="edge">
<title>6-&gt;5</title>
<path fill="none" stroke="#000000" d="M422.9023,-50.6313C392.9546,-51.676 332.8698,-53.772 297.2801,-55.0135"/>
<polygon fill="#000000" stroke="#000000" points="296.9538,-51.5226 287.0819,-55.3692 297.1979,-58.5184 296.9538,-51.5226"/>
<text text-anchor="middle" x="355" y="-58.2" font-family="Times,serif" font-size="14.00" fill="#000000">7</text>
</g>
<!-- 2&#45;&gt;4 -->
<g id="edge4" class="edge">
<title>2-&gt;4</title>
<path fill="none" stroke="#ff0000" d="M121.5327,-132.7833C131.4863,-130.3894 144.1688,-127.3391 155.4255,-124.6318"/>
<polygon fill="#ff0000" stroke="#ff0000" points="156.3389,-128.0121 165.2432,-122.2706 154.702,-121.2061 156.3389,-128.0121"/>
<text text-anchor="middle" x="143.5" y="-133.2" font-family="Times,serif" font-size="14.00" fill="#000000">2</text>
</g>
<!-- 4&#45;&gt;5 -->
<g id="edge9" class="edge">
<title>4-&gt;5</title>
<path fill="none" stroke="#000000" d="M195.6662,-104.6754C202.2816,-98.0992 210.7099,-90.2917 219,-84.2 226.6194,-78.6012 235.4586,-73.2791 243.567,-68.7975"/>
<polygon fill="#000000" stroke="#000000" points="245.4605,-71.7542 252.633,-63.9565 242.1632,-65.5794 245.4605,-71.7542"/>
<text text-anchor="middle" x="226" y="-89.2" font-family="Times,serif" font-size="14.00" fill="#000000">8</text>
</g>
<!-- 8 -->
<g id="node8" class="node">
<title>8</title>
<ellipse fill="none" stroke="#000000" cx="355" cy="-109" rx="18" ry="18"/>
<text text-anchor="middle" x="355" y="-104.8" font-family="Times,serif" font-size="14.00" fill="#000000">8</text>
</g>
<!-- 4&#45;&gt;8 -->
<g id="edge10" class="edge">
<title>4-&gt;8</title>
<path fill="none" stroke="#ff0000" d="M201.0819,-117.0539C231.019,-115.4874 291.1028,-112.3435 326.7011,-110.4808"/>
<polygon fill="#ff0000" stroke="#ff0000" points="327.0988,-113.9648 336.9023,-109.947 326.733,-106.9744 327.0988,-113.9648"/>
<text text-anchor="middle" x="269" y="-119.2" font-family="Times,serif" font-size="14.00" fill="#000000">13</text>
</g>
<!-- 7&#45;&gt;4 -->
<g id="edge13" class="edge">
<title>7-&gt;4</title>
<path fill="none" stroke="#000000" d="M422.8731,-158.075C389.0159,-154.3987 313.9021,-145.8608 251,-136 236.7045,-133.759 233.0074,-133.6297 219,-130 215.9727,-129.2155 212.8303,-128.3094 209.7196,-127.3537"/>
<polygon fill="#000000" stroke="#000000" points="210.6622,-123.98 200.0701,-124.22 208.5001,-130.6377 210.6622,-123.98"/>
<text text-anchor="middle" x="312" y="-150.2" font-family="Times,serif" font-size="14.00" fill="#000000">5</text>
</g>
<!-- 3 -->
<g id="node6" class="node">
<title>3</title>
<ellipse fill="none" stroke="#000000" cx="18" cy="-61" rx="18" ry="18"/>
<text text-anchor="middle" x="18" y="-56.8" font-family="Times,serif" font-size="14.00" fill="#000000">3</text>
</g>
<!-- 3&#45;&gt;6 -->
<g id="edge8" class="edge">
<title>3-&gt;6</title>
<path fill="none" stroke="#000000" d="M28.7598,-46.5439C43.5407,-28.5053 71.9661,0 104,0 104,0 104,0 355,0 380.0019,0 404.2282,-15.989 420.5609,-29.8837"/>
<polygon fill="#000000" stroke="#000000" points="418.5628,-32.793 428.3447,-36.8631 423.2359,-27.5813 418.5628,-32.793"/>
<text text-anchor="middle" x="226" y="-4.2" font-family="Times,serif" font-size="14.00" fill="#000000">19</text>
</g>
<!-- 3&#45;&gt;2 -->
<g id="edge5" class="edge">
<title>3-&gt;2</title>
<path fill="none" stroke="#000000" d="M30.7455,-73.9064C37.5209,-80.6345 46.0687,-88.9155 54,-96 62.8824,-103.934 72.9901,-112.3337 81.7819,-119.4504"/>
<polygon fill="#000000" stroke="#000000" points="79.7349,-122.2953 89.7251,-125.8233 84.1155,-116.8354 79.7349,-122.2953"/>
<text text-anchor="middle" x="61" y="-112.2" font-family="Times,serif" font-size="14.00" fill="#000000">14</text>
</g>
<!-- 3&#45;&gt;4 -->
<g id="edge6" class="edge">
<title>3-&gt;4</title>
<path fill="none" stroke="#000000" d="M35.4479,-65.9047C56.231,-71.8611 91.9199,-82.4511 122,-93.2 133.6215,-97.3529 146.2889,-102.4133 157.0535,-106.8774"/>
<polygon fill="#000000" stroke="#000000" points="155.7445,-110.1237 166.3199,-110.7663 158.4534,-103.6691 155.7445,-110.1237"/>
<text text-anchor="middle" x="104" y="-98.2" font-family="Times,serif" font-size="14.00" fill="#000000">10</text>
</g>
<!-- 3&#45;&gt;5 -->
<g id="edge7" class="edge">
<title>3-&gt;5</title>
<path fill="none" stroke="#000000" d="M36.0513,-60.6404C79.1824,-59.7812 188.5,-57.6036 240.5758,-56.5662"/>
<polygon fill="#000000" stroke="#000000" points="240.8467,-60.0616 250.775,-56.363 240.7072,-53.063 240.8467,-60.0616"/>
<text text-anchor="middle" x="143.5" y="-63.2" font-family="Times,serif" font-size="14.00" fill="#000000">6</text>
</g>
<!-- 5&#45;&gt;8 -->
<g id="edge11" class="edge">
<title>5-&gt;8</title>
<path fill="none" stroke="#000000" d="M284.9755,-64.5336C294.8981,-69.9506 307.8429,-77.2303 319,-84.2 323.204,-86.8262 327.6061,-89.7266 331.8317,-92.5904"/>
<polygon fill="#000000" stroke="#000000" points="329.9176,-95.522 340.137,-98.3175 333.8915,-89.7593 329.9176,-95.522"/>
<text text-anchor="middle" x="312" y="-89.2" font-family="Times,serif" font-size="14.00" fill="#000000">12</text>
</g>
<!-- 8&#45;&gt;6 -->
<g id="edge14" class="edge">
<title>8-&gt;6</title>
<path fill="none" stroke="#ff0000" d="M369.9801,-98.723C383.0946,-89.7258 402.3683,-76.5031 417.5294,-66.1019"/>
<polygon fill="#ff0000" stroke="#ff0000" points="419.637,-68.9005 425.9031,-60.3572 415.677,-63.1283 419.637,-68.9005"/>
<text text-anchor="middle" x="398" y="-88.2" font-family="Times,serif" font-size="14.00" fill="#000000">4</text>
</g>
<!-- 8&#45;&gt;7 -->
<g id="edge15" class="edge">
<title>8-&gt;7</title>
<path fill="none" stroke="#000000" d="M372.3182,-114.4342C382.2576,-117.929 394.7576,-122.979 405,-129.2 410.3143,-132.4278 415.6292,-136.435 420.4808,-140.4798"/>
<polygon fill="#000000" stroke="#000000" points="418.3024,-143.2247 428.1267,-147.1914 422.9204,-137.964 418.3024,-143.2247"/>
<text text-anchor="middle" x="398" y="-134.2" font-family="Times,serif" font-size="14.00" fill="#000000">10</text>
</g>
</g>
</svg>